<?xml version="1.0" encoding="utf-8"?>
<svg version="1.1" id="Layer_1" xmlns="http://www.w3.org/2000/svg" x="0px" y="0px" width="100%" viewBox="0 0 1024 912" enable-background="new 0 0 1024 912">
  <path opacity="1.000000" stroke="none" d=" M566.766235,506.976196 C559.940735,473.219177 553.168335,439.885956 546.156921,405.376556 C542.901367,410.216675 542.554382,414.576447 541.843994,418.690277 C536.667419,448.665680 530.438354,478.435272 524.615112,508.284821 C518.317627,540.565491 512.316101,572.903931 506.197479,605.219482 C505.066193,611.194458 501.695404,614.383667 496.627258,614.185059 C491.806763,613.996155 488.850830,610.765076 487.748413,604.990845 C481.734589,573.491638 475.635284,542.008789 469.597260,510.514130 C466.252258,493.066559 462.966522,475.607605 459.662994,458.152100 C459.294556,456.205414 459.144867,454.177704 457.349396,452.785370 C454.348175,453.043945 453.960236,455.695068 452.980164,457.658875 C445.395264,472.857086 445.415985,472.965515 428.665192,473.007721 C392.173492,473.099640 355.678467,473.347839 319.191589,472.932526 C309.275635,472.819702 299.323608,473.118378 289.396088,472.366852 C282.965576,471.880035 282.424316,471.923767 283.077362,465.409760 C284.434601,451.872131 285.197388,438.218353 288.781219,425.004395 C292.654266,410.724121 296.370300,396.377380 302.494568,382.828003 C304.481903,378.431213 306.870239,374.203278 308.653290,369.729980 C310.484497,365.135712 313.207703,365.301178 316.805145,367.366669 C324.892853,372.010223 333.042084,376.546753 341.122711,381.202484 C350.067780,386.356293 358.920319,391.672333 367.908691,396.748505 C370.618591,398.278870 371.281860,399.834930 369.965546,402.757263 C363.527557,417.050110 357.978943,431.635010 355.211578,447.179688 C354.104889,453.395996 354.347900,454.103943 360.876740,454.094482 C380.372528,454.066132 399.868317,454.004547 419.364044,453.933167 C434.826904,453.876556 434.763214,453.830841 441.620453,439.674896 C444.886353,432.932861 448.475281,426.347961 451.864197,419.664642 C454.068085,415.318329 457.091156,412.224701 462.404388,413.041840 C467.862885,413.881348 469.301605,418.095764 470.178436,422.765106 C474.132141,443.820251 478.141449,464.864899 482.122101,485.914978 C485.980255,506.317108 489.757935,526.734924 493.749084,547.110901 C494.413300,550.501770 493.601044,554.450500 496.696930,557.512390 C499.145508,555.567200 499.126160,552.871765 499.515564,550.578796 C505.582001,514.857910 513.440674,479.484558 520.115906,443.882629 C525.625610,414.497009 531.208923,385.125153 536.736877,355.742950 C537.665527,350.807068 541.077820,347.380341 545.656860,346.960083 C549.809143,346.578949 553.468384,349.315765 554.578796,354.571259 C558.629700,373.743591 562.422119,392.970490 566.334167,412.172272 C571.476624,437.413452 576.630066,462.652405 581.824463,487.882935 C582.081848,489.133118 582.041748,490.586761 583.461731,491.689636 C585.541748,491.212585 585.682983,489.167633 586.227844,487.604065 C588.254639,481.789093 590.143982,475.926300 592.100281,470.086639 C594.179626,463.879822 596.951599,461.713531 603.495056,461.727692 C621.816528,461.767334 640.130493,461.687225 658.454590,462.518005 C671.499512,463.109436 684.608704,462.137543 697.676880,462.424377 C703.686401,462.556274 709.630432,461.714600 715.602905,461.998535 C720.432922,462.228119 724.407532,461.004822 728.484619,458.028931 C738.974731,450.372192 753.483948,456.667053 755.795105,469.446198 C757.221558,477.333649 753.599976,483.972443 745.599548,488.136078 C739.136230,491.499756 731.447876,490.628845 726.411743,484.986816 C723.034790,481.203613 719.441406,480.209259 714.623840,480.232208 C681.132202,480.391998 647.638733,480.404785 614.147705,480.180939 C608.974365,480.146362 606.489807,481.775238 604.705200,486.710052 C599.556885,500.945709 593.789307,514.957031 588.296265,529.068665 C586.726135,533.102539 583.706482,535.468262 579.535522,535.176819 C575.278748,534.879517 572.201904,532.575989 571.296143,527.858826 C569.980286,521.005310 568.328125,514.216431 566.766235,506.976196 z" style="fill: rgb(189, 52, 41);"/>
  <path opacity="1.000000" stroke="none" d=" M421.233704,647.193970 C414.681213,658.805603 408.630371,670.281677 401.559296,681.178467 C399.106995,684.957581 396.870514,685.628601 392.595764,683.412720 C378.392761,676.050781 367.484528,664.736389 356.047516,654.039124 C346.075317,644.711853 337.800598,633.821838 328.730865,623.666748 C325.691315,620.263489 324.023346,615.730225 321.444244,611.854858 C319.213348,608.502686 321.573059,605.825134 324.594757,604.135925 C336.635590,597.404724 348.756683,590.816589 360.775085,584.045959 C364.822174,581.765991 368.597992,579.009460 372.595825,576.635925 C377.640381,573.640747 379.910004,573.928894 383.148346,578.648315 C391.291046,590.515198 401.298492,600.671204 411.556213,610.647400 C416.817108,615.763916 423.456116,619.070862 428.621033,624.387146 C431.130066,626.969727 431.610870,628.771057 429.950287,631.651367 C427.044342,636.691711 424.237732,641.789246 421.233704,647.193970 z" style="fill: rgb(245, 200, 77);"/>
  <path opacity="1.000000" stroke="none" d=" M365.372498,546.645264 C366.367096,549.357300 367.159607,551.729858 368.128235,554.028259 C371.017548,560.884216 370.965057,560.735535 364.752411,564.330994 C349.775940,572.998535 334.880798,581.806519 319.954285,590.560364 C318.661835,591.318359 317.366150,592.072144 316.095673,592.865967 C312.855743,594.890320 311.143677,594.157654 309.262360,590.558777 C297.974121,568.964539 290.961090,545.924683 286.239227,522.199524 C284.267639,512.293335 284.025269,502.041779 283.021820,491.944733 C282.730713,489.015472 284.090179,487.656403 287.063477,487.625763 C307.045990,487.419678 327.027679,487.112701 347.010529,486.965851 C351.172607,486.935242 353.747803,491.074982 353.778473,496.602112 C353.861633,511.589966 357.405609,525.848816 363.080566,539.646790 C363.962067,541.790161 364.535187,544.060364 365.372498,546.645264 z" style="fill: rgb(197, 130, 52);"/>
  <path opacity="1.000000" stroke="none" d=" M339.369385,323.385193 C356.267029,303.408478 375.607452,286.843933 398.027222,272.926605 C402.216522,280.303833 406.092621,287.218048 410.053009,294.083649 C416.541931,305.332764 422.996674,316.603516 429.658752,327.749817 C431.746307,331.242523 431.719452,333.418152 428.022339,335.926514 C409.927887,348.202972 394.602600,363.356689 382.410156,381.540558 C379.950348,385.209045 377.743835,385.927277 373.855164,383.621979 C357.099121,373.688629 340.244659,363.919464 323.345856,354.230408 C320.043640,352.337006 319.824310,350.260040 321.740753,347.382507 C327.183960,339.209595 332.711487,331.099762 339.369385,323.385193 z" style="fill: rgb(116, 55, 141);"/>
  <path opacity="1.000000" stroke="none" d=" M644.413452,669.554932 C636.947144,656.544922 629.730408,643.812561 622.341797,631.180603 C620.343262,627.763916 621.459595,625.850403 624.368469,623.791809 C640.509949,612.368591 654.690430,598.892578 666.459839,582.947876 C666.657349,582.680237 666.877808,582.429626 667.080627,582.165710 C673.405273,573.935181 673.532532,573.707520 682.467896,578.707886 C697.855896,587.319214 713.075317,596.232239 728.340820,605.061279 C729.746460,605.874390 731.331543,606.561707 732.368286,608.533936 C726.879517,617.787598 720.525879,626.688232 713.459290,635.026978 C698.667725,652.481445 682.402222,668.314697 662.817749,680.503845 C653.846863,686.087158 653.997498,686.360474 648.701172,677.298462 C647.274292,674.857056 645.962830,672.348267 644.413452,669.554932 z" style="fill: rgb(100, 141, 81);"/>
  <path opacity="1.000000" stroke="none" d=" M426.815491,702.279907 C422.309692,700.758850 418.794464,698.146057 414.938660,696.191650 C412.322540,694.865601 411.767487,693.167480 413.276672,690.544189 C418.314789,681.786682 423.231720,672.959412 428.209045,664.166870 C432.788330,656.077393 437.508728,648.064697 441.922852,639.886414 C444.115112,635.824585 446.922150,634.951843 450.982269,636.761292 C457.661469,639.738037 464.182953,643.281311 471.134552,645.383423 C481.140167,648.409119 491.046722,652.120728 501.776672,652.335449 C506.381775,652.427612 510.962219,653.583801 515.561401,654.200500 C518.676392,654.618103 518.979553,656.749084 518.990112,659.295532 C519.034912,670.122009 519.315002,680.934021 518.594788,691.770081 C518.032166,700.235046 518.255676,708.762634 518.387451,717.258484 C518.442810,720.828491 517.360535,722.483704 513.577332,722.341797 C501.755676,721.898193 490.104340,720.535034 478.439575,718.323608 C462.838043,715.365845 447.964813,710.279724 433.087677,705.048523 C431.057831,704.334717 429.142303,703.295776 426.815491,702.279907 z" style="fill: rgb(189, 209, 85);"/>
  <path opacity="1.000000" stroke="none" d=" M653.103943,274.967102 C655.002075,273.172791 656.433044,274.156799 657.844177,275.093170 C686.611755,294.181396 711.024292,317.609589 729.701416,346.830994 C732.285156,350.873199 731.279297,352.519318 727.289917,354.765778 C710.769043,364.068970 694.442566,373.722595 678.166748,383.451782 C674.514709,385.634827 672.662415,385.253052 670.172302,381.597229 C658.061768,363.817596 642.994568,348.895081 625.305054,336.621643 C619.788818,332.794342 619.676758,332.515442 623.308655,326.191833 C633.085999,309.168640 642.992188,292.219482 653.103943,274.967102 z" style="fill: rgb(79, 149, 208);"/>
  <path opacity="1.000000" stroke="none" d=" M585.713257,643.636475 C591.569336,641.582520 597.101440,639.731750 602.199829,636.884277 C605.377075,635.109680 607.610779,636.086243 609.280762,638.959961 C619.309631,656.218445 629.305481,673.496277 639.324402,690.760559 C641.257141,694.090881 638.672791,695.271484 636.521240,696.456482 C628.346130,700.958740 619.734558,704.546265 611.012878,707.785950 C587.966675,716.346619 564.197021,721.505188 539.563354,722.577393 C535.194275,722.767578 533.503967,722.058716 533.519531,717.056580 C533.577515,698.426514 534.182251,679.786499 533.188232,661.158325 C532.872498,655.242432 534.353210,654.018372 540.267822,653.678223 C555.811890,652.784363 570.717468,648.890137 585.713257,643.636475 z" style="fill: rgb(129, 184, 88);"/>
  <path opacity="1.000000" stroke="none" d=" M446.913025,249.732605 C468.876190,242.483932 490.895599,237.858658 513.735596,237.484924 C516.949524,237.432327 518.336304,237.867691 518.322571,241.265854 C518.242493,261.082306 518.244202,280.899109 518.257202,300.715790 C518.259155,303.660645 517.364014,305.093567 514.002380,305.403687 C491.453094,307.483795 469.789398,313.055237 449.425385,323.075500 C445.938812,324.791077 444.478638,324.021484 442.781311,321.007141 C433.401611,304.349701 423.965393,287.723083 414.400513,271.171478 C411.238586,265.699982 410.999084,265.739746 416.834381,262.840515 C426.520142,258.028168 436.309967,253.438904 446.913025,249.732605 z" style="fill: rgb(141, 120, 179);"/>
  <path opacity="1.000000" stroke="none" d=" M624.590332,293.479065 C619.101440,302.834290 613.677124,311.804779 608.519165,320.925873 C606.922546,323.749237 605.564880,324.234283 602.629028,322.657043 C587.351196,314.449493 570.722534,310.396362 553.801636,307.400146 C548.896362,306.531525 543.926697,305.746765 538.963440,305.569946 C534.633057,305.415710 533.715332,303.317413 533.733765,299.585968 C533.804688,285.262482 533.714111,270.938293 533.708252,256.614349 C533.706360,251.950882 533.946655,247.280853 533.765259,242.625946 C533.620117,238.899643 534.537598,237.334137 538.788879,237.532211 C551.088684,238.105225 563.313232,239.288971 575.324036,241.887619 C597.846802,246.760590 619.335571,254.561920 640.147522,265.712677 C635.699402,275.489410 629.470764,283.912140 624.590332,293.479065 z" style="fill: rgb(131, 153, 203);"/>
</svg>